<svg width="200" height="200" viewBox="0 0 200 200" xmlns="http://www.w3.org/2000/svg">
<path d="M111.558 28.5417L164.6 63.9C165.741 64.661 166.677 65.692 167.324 66.9015C167.972 68.111 168.31 69.4616 168.31 70.8333C168.31 72.2051 167.972 73.5557 167.324 74.7651C166.677 75.9746 165.741 77.0056 164.6 77.7667L111.558 113.133C108.136 115.416 104.114 116.634 100 116.634C95.8861 116.634 91.8643 115.416 88.4417 113.133L35.4 77.7667C34.2587 77.0056 33.3229 75.9746 32.6757 74.7651C32.0284 73.5557 31.6898 72.2051 31.6898 70.8333C31.6898 69.4616 32.0284 68.111 32.6757 66.9015C33.3229 65.692 34.2587 64.661 35.4 63.9L88.4417 28.5417C91.8643 26.2593 95.8861 25.0413 100 25.0413C104.114 25.0413 108.136 26.2593 111.558 28.5417ZM166.883 101.6C165.647 103.579 164.009 105.277 162.075 106.583L111.658 140.617C108.215 142.942 104.155 144.184 100 144.184C95.8451 144.184 91.7851 142.942 88.3417 140.617L37.925 106.583C34.9076 104.548 32.6395 101.58 31.4672 98.1343C30.295 94.6883 30.2831 90.9534 31.4333 87.5L88.4417 125.5C91.6421 127.633 95.3706 128.838 99.2139 128.982C103.057 129.126 106.865 128.204 110.217 126.317L111.55 125.5L168.558 87.5C169.335 89.8286 169.587 92.2999 169.297 94.7373C169.008 97.1747 168.184 99.5181 166.883 101.6ZM166.883 128.683C165.647 130.663 164.009 132.361 162.075 133.667L111.658 167.7C108.215 170.025 104.155 171.267 100 171.267C95.8451 171.267 91.7851 170.025 88.3417 167.7L37.925 133.667C34.9076 131.631 32.6395 128.664 31.4672 125.218C30.295 121.772 30.2831 118.037 31.4333 114.583L88.4417 152.583C91.6421 154.716 95.3706 155.921 99.2139 156.065C103.057 156.21 106.865 155.287 110.217 153.4L111.55 152.583L168.558 114.583C169.335 116.912 169.587 119.383 169.297 121.821C169.008 124.258 168.184 126.601 166.883 128.683Z"/>
</svg>
