<svg width="200" height="115" viewBox="0 0 200 115" xmlns="http://www.w3.org/2000/svg">
<path d="M7.2 104.229C7.35238 104.229 7.58095 104.305 7.88571 104.457C8.19048 104.609 8.60952 104.724 9.14286 104.8C9.67619 104.876 10.1333 104.914 10.5143 104.914C11.5048 104.914 12.419 104.419 13.2571 103.429C14.0952 102.438 14.7048 101.333 15.0857 100.114C15.8476 98.0571 17.1429 92.2285 18.9714 82.6285C20.8 73.0285 22.5524 63.8857 24.2286 55.2C25.9048 46.5143 26.7429 42.1333 26.7429 42.0571V41.7143H21.3714C17.7905 41.7143 15.8857 41.6381 15.6571 41.4857C15.3524 41.2571 15.2 40.8762 15.2 40.3428L16 37.1428C16.1524 36.7619 16.4571 36.5714 16.9143 36.5714C17.3714 36.5714 19.1619 36.5333 22.2857 36.4571C25.9429 36.4571 27.7714 36.419 27.7714 36.3428C27.7714 36.1904 28.1143 34.2857 28.8 30.6285C29.4857 26.9714 29.9429 24.7619 30.1714 24C32.9905 11.4285 38.5524 5.14282 46.8571 5.14282C49.6762 5.2952 52 6.1333 53.8286 7.65711C55.6571 9.18092 56.5714 11.2 56.5714 13.7143C56.5714 16.4571 55.7714 18.4381 54.1714 19.6571C52.5714 20.8762 50.9714 21.5238 49.3714 21.6C46.019 21.6 44.3429 20 44.3429 16.8C44.3429 15.3523 44.7619 14.0952 45.6 13.0285C46.4381 11.9619 47.3524 11.1619 48.3429 10.6285L49.3714 10.0571C48.1524 9.59996 47.0095 9.37139 45.9429 9.37139C45.0286 9.37139 44.1524 9.75235 43.3143 10.5143C42.4762 11.2762 41.9048 12.3428 41.6 13.7143C41.0667 15.9238 40.4571 18.8952 39.7714 22.6285C39.0857 26.3619 38.4762 29.5238 37.9429 32.1143C37.4095 34.7047 37.1429 36.0762 37.1429 36.2285C37.1429 36.3809 39.2381 36.4571 43.4286 36.4571C46.8571 36.4571 48.8381 36.4952 49.3714 36.5714C49.9048 36.6476 50.3238 36.8762 50.6286 37.2571C50.7048 37.5619 50.6286 38.2095 50.4 39.2C50.1714 40.1904 49.9809 40.8 49.8286 41.0285C49.6762 41.4095 49.3333 41.6 48.8 41.6C48.2667 41.6 46.2095 41.6381 42.6286 41.7143H36.2286L33.6 55.6571C29.9429 74.5523 27.3905 86.3619 25.9429 91.0857C23.8857 97.5619 21.219 102.362 17.9429 105.486C15.1238 107.924 12.3429 109.143 9.6 109.143C7.1619 109.143 4.95238 108.419 2.97143 106.971C0.990476 105.524 0 103.467 0 100.8C0 97.9809 0.8 95.9238 2.4 94.6285C4 93.3333 5.6 92.6857 7.2 92.6857C10.5524 92.6857 12.2286 94.2857 12.2286 97.4857C12.2286 98.9333 11.8095 100.19 10.9714 101.257C10.1333 102.324 9.21905 103.124 8.22857 103.657L7.2 104.229Z" fill="inherit"/>
<path d="M67.3143 57.1429C67.3143 51.8857 67.6952 46.8952 68.4571 42.1714C69.219 37.4476 70.0952 33.3714 71.0857 29.9429C72.0762 26.5143 73.4857 23.1619 75.3143 19.8857C77.1428 16.6095 78.5905 14.0571 79.6571 12.2286C80.7238 10.4 82.3238 8.41905 84.4571 6.28571C86.5905 4.15238 87.8476 2.85714 88.2286 2.4C88.6095 1.94286 89.5619 1.14286 91.0857 -1.90735e-06H92.5714H93.0286C94.0952 -1.90735e-06 94.6286 0.342855 94.6286 1.02857C94.6286 1.25714 93.9809 2.05714 92.6857 3.42857C91.3905 4.8 89.8286 6.81905 88 9.48571C86.1714 12.1524 84.3047 15.4286 82.4 19.3143C80.4952 23.2 78.8952 28.4571 77.6 35.0857C76.3047 41.7143 75.6571 49.0667 75.6571 57.1429C75.6571 65.219 76.3047 72.5333 77.6 79.0857C78.8952 85.6381 80.4571 90.9333 82.2857 94.9714C84.1143 99.0095 85.9809 102.286 87.8857 104.8C89.7905 107.314 91.3905 109.333 92.6857 110.857C93.9809 112.381 94.6286 113.181 94.6286 113.257C94.6286 113.943 94.0571 114.286 92.9143 114.286H92.5714H91.0857L87.8857 111.543C80.7238 105.067 75.5047 96.9905 72.2286 87.3143C68.9524 77.6381 67.3143 67.5809 67.3143 57.1429Z"/>
<path d="M106.971 52.6857C107.505 49.4857 109.562 45.7905 113.143 41.6C116.724 37.4095 121.143 35.2762 126.4 35.2C129.067 35.2 131.505 35.8857 133.714 37.2572C135.924 38.6286 137.562 40.3429 138.629 42.4C141.829 37.6 145.676 35.2 150.171 35.2C152.99 35.2 155.429 36.0381 157.486 37.7143C159.543 39.3905 160.61 41.6381 160.686 44.4572C160.686 46.6667 160.152 48.4572 159.086 49.8286C158.019 51.2 156.99 52.0381 156 52.3429C155.01 52.6476 154.133 52.8 153.371 52.8C151.924 52.8 150.743 52.381 149.829 51.5429C148.914 50.7048 148.457 49.6 148.457 48.2286C148.457 44.7238 150.362 42.3238 154.171 41.0286C153.333 40.0381 151.81 39.5429 149.6 39.5429C148.61 39.5429 147.886 39.6191 147.429 39.7714C144.533 40.9905 142.4 43.5048 141.029 47.3143C136.457 64.1524 134.171 73.981 134.171 76.8C134.171 78.9333 134.781 80.4572 136 81.3714C137.219 82.2857 138.552 82.7429 140 82.7429C142.819 82.7429 145.6 81.4857 148.343 78.9714C151.086 76.4572 152.952 73.3714 153.943 69.7143C154.171 68.9524 154.4 68.5333 154.629 68.4572C154.857 68.381 155.467 68.3048 156.457 68.2286H156.914C158.057 68.2286 158.629 68.5333 158.629 69.1429C158.629 69.2191 158.552 69.6381 158.4 70.4C157.181 74.7429 154.819 78.5905 151.314 81.9429C147.81 85.2952 143.733 86.9714 139.086 86.9714C133.752 86.9714 129.714 84.5714 126.971 79.7714C123.848 84.4952 120.267 86.8571 116.229 86.8571H115.543C111.81 86.8571 109.143 85.8667 107.543 83.8857C105.943 81.9048 105.105 79.8095 105.029 77.6C105.029 75.1619 105.752 73.181 107.2 71.6572C108.648 70.1333 110.362 69.3714 112.343 69.3714C115.619 69.3714 117.257 70.9714 117.257 74.1714C117.257 75.6952 116.8 77.0286 115.886 78.1714C114.971 79.3143 114.095 80.0762 113.257 80.4572C112.419 80.8381 111.924 81.0286 111.771 81.0286L111.429 81.1429C111.429 81.2191 111.657 81.3714 112.114 81.6C112.571 81.8286 113.181 82.0952 113.943 82.4C114.705 82.7048 115.429 82.8191 116.114 82.7429C118.857 82.7429 121.219 81.0286 123.2 77.6C123.886 76.381 124.762 73.7905 125.829 69.8286C126.895 65.8667 127.962 61.7524 129.029 57.4857C130.095 53.2191 130.705 50.7048 130.857 49.9429C131.238 47.8857 131.429 46.4 131.429 45.4857C131.429 43.3524 130.857 41.8286 129.714 40.9143C128.571 40 127.276 39.5429 125.829 39.5429C122.781 39.5429 119.924 40.7619 117.257 43.2C114.59 45.6381 112.724 48.7619 111.657 52.5714C111.505 53.2572 111.314 53.6381 111.086 53.7143C110.857 53.7905 110.248 53.8667 109.257 53.9429H107.657C107.2 53.4857 106.971 53.0667 106.971 52.6857Z"/>
<path d="M173.257 0.114284L173.714 -1.90735e-06C174.095 -1.90735e-06 174.476 -1.90735e-06 174.857 -1.90735e-06H176.229L179.429 2.74286C186.59 9.21905 191.81 17.2952 195.086 26.9714C198.362 36.6476 200 46.7048 200 57.1429C200 62.3238 199.619 67.3143 198.857 72.1143C198.095 76.9143 197.219 80.9905 196.229 84.3429C195.238 87.6952 193.829 91.0476 192 94.4C190.171 97.7524 188.724 100.305 187.657 102.057C186.59 103.81 185.029 105.752 182.971 107.886C180.914 110.019 179.695 111.276 179.314 111.657C178.933 112.038 178.057 112.762 176.686 113.829C176.457 114.057 176.305 114.21 176.229 114.286H174.857C174.248 114.286 173.829 114.286 173.6 114.286C173.371 114.286 173.181 114.171 173.029 113.943C172.876 113.714 172.762 113.371 172.686 112.914C172.762 112.838 173.181 112.343 173.943 111.429C185.752 99.1619 191.657 81.0667 191.657 57.1429C191.657 33.219 185.752 15.1238 173.943 2.85714C173.181 1.94286 172.762 1.44762 172.686 1.37143C172.686 0.761903 172.876 0.342855 173.257 0.114284Z"/>
</svg>
